<?xml version="1.0" encoding="UTF-8" standalone="no"?>
<svg
   xmlns:dc="http://purl.org/dc/elements/1.1/"
   xmlns:cc="http://creativecommons.org/ns#"
   xmlns:rdf="http://www.w3.org/1999/02/22-rdf-syntax-ns#"
   xmlns:svg="http://www.w3.org/2000/svg"
   xmlns="http://www.w3.org/2000/svg"
   xmlns:sodipodi="http://sodipodi.sourceforge.net/DTD/sodipodi-0.dtd"
   xmlns:inkscape="http://www.inkscape.org/namespaces/inkscape"
   inkscape:export-ydpi="599.98358"
   inkscape:export-xdpi="599.98358"
   inkscape:export-filename="C:\Users\lmopp\Documents\Projekte\pontchartain\Logos\Pontchartrain-V5.png"
   width="13.67868in"
   height="3.2635937in"
   viewBox="0 0 1969.7335 469.95794"
   version="1.1"
   id="svg3"
   sodipodi:docname="Pontchartrain5.svg"
   inkscape:version="1.0 (4035a4fb49, 2020-05-01)">
  <metadata
     id="metadata9">
    <rdf:RDF>
      <cc:Work
         rdf:about="">
        <dc:format>image/svg+xml</dc:format>
        <dc:type
           rdf:resource="http://purl.org/dc/dcmitype/StillImage" />
        <dc:title></dc:title>
      </cc:Work>
    </rdf:RDF>
  </metadata>
  <defs
     id="defs7">
    <filter
       inkscape:collect="always"
       style="color-interpolation-filters:sRGB"
       id="filter878"
       x="-0.0033236016"
       width="1.0066472"
       y="-0.02547276"
       height="1.0509455">
      <feGaussianBlur
         inkscape:collect="always"
         stdDeviation="2.2223988"
         id="feGaussianBlur880" />
    </filter>
    <filter
       inkscape:collect="always"
       style="color-interpolation-filters:sRGB"
       id="filter882"
       x="-6.7828601e-05"
       width="1.0001357"
       y="-0.00051985227"
       height="1.0010397">
      <feGaussianBlur
         inkscape:collect="always"
         stdDeviation="0.045355078"
         id="feGaussianBlur884" />
    </filter>
  </defs>
  <sodipodi:namedview
     fit-margin-left="0.5"
     fit-margin-bottom="0.3"
     fit-margin-right="0.5"
     fit-margin-top="0.3"
     units="px"
     inkscape:document-rotation="0"
     pagecolor="#ffffff"
     bordercolor="#666666"
     borderopacity="1"
     objecttolerance="10"
     gridtolerance="10"
     guidetolerance="10"
     inkscape:pageopacity="0"
     inkscape:pageshadow="2"
     inkscape:window-width="3840"
     inkscape:window-height="2054"
     id="namedview5"
     showgrid="false"
     inkscape:zoom="1.4093323"
     inkscape:cx="357.17738"
     inkscape:cy="133.56356"
     inkscape:window-x="-11"
     inkscape:window-y="-11"
     inkscape:window-maximized="1"
     inkscape:current-layer="svg3"
     inkscape:snap-global="false" />
  <rect
     style="fill:#324854;fill-opacity:1;stroke:#324854;stroke-width:53.6189;stroke-linecap:round;stroke-linejoin:round;stroke-miterlimit:4;stroke-dasharray:none;stroke-opacity:1"
     id="rect948"
     width="1772.1135"
     height="329.93912"
     x="98.809547"
     y="70.009506" />
  <rect
     y="71.855782"
     x="99.59153"
     height="326.24658"
     width="1769.4854"
     id="rect946"
     style="fill:#324854;fill-opacity:1;stroke:#dbe4ea;stroke-width:21.3113;stroke-linecap:round;stroke-linejoin:round;stroke-miterlimit:4;stroke-dasharray:none;stroke-opacity:0.992157" />
  <rect
     style="fill:#324854;fill-opacity:1;stroke:#304550;stroke-width:1.32508;stroke-linecap:round;stroke-linejoin:round;stroke-miterlimit:4;stroke-dasharray:none;stroke-opacity:0.992157"
     id="rect944"
     width="1764.8429"
     height="323.73285"
     x="102.97703"
     y="73.112648" />
  <text
     id="text844"
     y="343.422"
     x="187.71201"
     style="font-style:normal;font-variant:normal;font-weight:bold;font-stretch:condensed;font-size:288px;line-height:1.25;font-family:'Rockwell Condensed';-inkscape-font-specification:'Rockwell Condensed, Bold Condensed';font-variant-ligatures:normal;font-variant-caps:normal;font-variant-numeric:normal;font-variant-east-asian:normal;fill:#000000;fill-opacity:1;stroke:none;stroke-width:1.5;stroke-miterlimit:4;stroke-dasharray:none;filter:url(#filter878)"
     xml:space="preserve"><tspan
       style="font-style:normal;font-variant:normal;font-weight:bold;font-stretch:condensed;font-size:288px;font-family:'Rockwell Condensed';-inkscape-font-specification:'Rockwell Condensed, Bold Condensed';font-variant-ligatures:normal;font-variant-caps:normal;font-variant-numeric:normal;font-variant-east-asian:normal;fill:#000000;fill-opacity:1;stroke-width:1.5;stroke-miterlimit:4;stroke-dasharray:none"
       y="343.422"
       x="187.71201"
       id="tspan842"
       sodipodi:role="line">Pontchartrain</tspan></text>
  <g
     transform="translate(-497.04452)"
     aria-label="Pontchartrain"
     id="text1411"
     style="font-style:normal;font-variant:normal;font-weight:bold;font-stretch:condensed;font-size:288px;line-height:1.25;font-family:'Rockwell Condensed';-inkscape-font-specification:'Rockwell Condensed, Bold Condensed';font-variant-ligatures:normal;font-variant-caps:normal;font-variant-numeric:normal;font-variant-east-asian:normal;fill:#ff8c00;fill-opacity:1;stroke:#f8f8f8;stroke-width:7.50001;stroke-linecap:round;stroke-linejoin:round;stroke-miterlimit:4;stroke-dasharray:none;stroke-opacity:0.972549;filter:url(#filter882)">
    <g
       id="g868"
       style="opacity:1">
      <path
         style="color:#000000;font-style:normal;font-variant:normal;font-weight:bold;font-stretch:condensed;font-size:288px;line-height:1.25;font-family:'Rockwell Condensed';-inkscape-font-specification:'Rockwell Condensed, Bold Condensed';font-variant-ligatures:normal;font-variant-position:normal;font-variant-caps:normal;font-variant-numeric:normal;font-variant-alternates:normal;font-variant-east-asian:normal;font-feature-settings:normal;font-variation-settings:normal;text-indent:0;text-align:start;text-decoration:none;text-decoration-line:none;text-decoration-style:solid;text-decoration-color:#000000;letter-spacing:normal;word-spacing:normal;text-transform:none;writing-mode:lr-tb;direction:ltr;text-orientation:mixed;dominant-baseline:auto;baseline-shift:baseline;text-anchor:start;white-space:normal;shape-padding:0;shape-margin:0;inline-size:0;clip-rule:nonzero;display:inline;overflow:visible;visibility:visible;isolation:auto;mix-blend-mode:normal;color-interpolation:sRGB;color-interpolation-filters:linearRGB;solid-color:#000000;solid-opacity:1;vector-effect:none;fill:#ff8c00;fill-opacity:1;fill-rule:nonzero;stroke:none;stroke-width:7.50001;stroke-linecap:round;stroke-linejoin:round;stroke-miterlimit:4;stroke-dasharray:none;stroke-dashoffset:0;stroke-opacity:1;color-rendering:auto;image-rendering:auto;shape-rendering:auto;text-rendering:auto;enable-background:accumulate;stop-color:#000000;stop-opacity:1"
         d="m 683.86517,334.72241 v -30.23437 h 14.0625 v -141.75 h -14.0625 v -30.23438 h 65.10938 c 23.8125,0 42.32812,5.71875 55.54687,17.15625 13.3125,11.4375 19.96875,27.32813 19.96875,47.67188 0,42.09375 -26.15625,63.14062 -78.46875,63.14062 v 44.01563 h 17.01563 v 30.23437 z m 62.15625,-171.98437 v 66.79687 c 10.6875,0 17.90625,-2.95312 21.65625,-8.85937 3.84375,-5.90625 5.76563,-14.15625 5.76563,-24.75 0,-22.125 -9.14063,-33.1875 -27.42188,-33.1875 z"
         id="path870" />
      <path
         style="color:#000000;font-style:normal;font-variant:normal;font-weight:bold;font-stretch:condensed;font-size:288px;line-height:1.25;font-family:'Rockwell Condensed';-inkscape-font-specification:'Rockwell Condensed, Bold Condensed';font-variant-ligatures:normal;font-variant-position:normal;font-variant-caps:normal;font-variant-numeric:normal;font-variant-alternates:normal;font-variant-east-asian:normal;font-feature-settings:normal;font-variation-settings:normal;text-indent:0;text-align:start;text-decoration:none;text-decoration-line:none;text-decoration-style:solid;text-decoration-color:#000000;letter-spacing:normal;word-spacing:normal;text-transform:none;writing-mode:lr-tb;direction:ltr;text-orientation:mixed;dominant-baseline:auto;baseline-shift:baseline;text-anchor:start;white-space:normal;shape-padding:0;shape-margin:0;inline-size:0;clip-rule:nonzero;display:inline;overflow:visible;visibility:visible;isolation:auto;mix-blend-mode:normal;color-interpolation:sRGB;color-interpolation-filters:linearRGB;solid-color:#000000;solid-opacity:1;vector-effect:none;fill:#f8f8f8;fill-opacity:0.972549;fill-rule:nonzero;stroke:none;stroke-width:7.50001;stroke-linecap:round;stroke-linejoin:round;stroke-miterlimit:4;stroke-dasharray:none;stroke-dashoffset:0;stroke-opacity:1;color-rendering:auto;image-rendering:auto;shape-rendering:auto;text-rendering:auto;enable-background:accumulate;stop-color:#000000;stop-opacity:1"
         d="m 683.86523,128.75391 a 3.75038,3.75038 0 0 0 -3.75,3.75 v 30.23437 a 3.75038,3.75038 0 0 0 3.75,3.75 h 10.3125 v 134.25 h -10.3125 a 3.75038,3.75038 0 0 0 -3.75,3.75 v 30.23438 a 3.75038,3.75038 0 0 0 3.75,3.75 h 79.17188 a 3.75038,3.75038 0 0 0 3.75,-3.75 v -30.23438 a 3.75038,3.75038 0 0 0 -3.75,-3.75 H 749.77148 V 264.125 c 24.80656,-0.49074 44.10103,-5.77174 57.45313,-16.51562 14.02944,-11.28893 21.01562,-28.45375 21.01562,-50.27735 0,-21.15696 -7.12588,-38.35459 -21.26562,-50.50781 l -0.008,-0.006 C 792.90583,134.656 773.38305,128.75377 748.97442,128.75377 Z m 3.75,7.5 h 61.35938 c 23.2121,0 40.71758,5.53372 53.09375,16.24218 a 3.75038,3.75038 0 0 0 0.01,0.008 c 12.47892,10.72131 18.66211,25.30234 18.66211,44.82812 0,20.27015 -6.09193,34.67564 -18.21875,44.43359 -12.12681,9.75796 -30.84666,14.95704 -56.5,14.95704 a 3.75038,3.75038 0 0 0 -3.75,3.75 v 44.01562 a 3.75038,3.75038 0 0 0 3.75,3.75 h 13.26563 v 22.73438 h -71.67188 v -22.73438 h 10.3125 a 3.75038,3.75038 0 0 0 3.75,-3.75 v -141.75 a 3.75038,3.75038 0 0 0 -3.75,-3.75 h -10.3125 z m 58.40625,22.73437 a 3.75038,3.75038 0 0 0 -3.75,3.75 v 66.79688 a 3.75038,3.75038 0 0 0 3.75,3.75 c 11.36645,0 20.18861,-3.32672 24.80664,-10.57813 4.39696,-6.76386 6.36524,-15.74099 6.36524,-26.78125 0,-11.57892 -2.3626,-20.80171 -7.71484,-27.2793 -5.35225,-6.47758 -13.56,-9.6582 -23.45704,-9.6582 z m 3.75,7.78516 c 6.26215,0.63754 10.75339,2.81098 13.92579,6.65039 3.78838,4.58492 5.99609,11.95587 5.99609,22.50195 0,10.14021 -1.87354,17.65792 -5.1582,22.70508 a 3.75038,3.75038 0 0 0 -0.0234,0.0352 c -2.48219,3.90944 -7.1702,6.24615 -14.74024,6.85546 z"
         id="path872" />
    </g>
    <g
       id="g874"
       style="opacity:1">
      <path
         style="color:#000000;font-style:normal;font-variant:normal;font-weight:bold;font-stretch:condensed;font-size:288px;line-height:1.25;font-family:'Rockwell Condensed';-inkscape-font-specification:'Rockwell Condensed, Bold Condensed';font-variant-ligatures:normal;font-variant-position:normal;font-variant-caps:normal;font-variant-numeric:normal;font-variant-alternates:normal;font-variant-east-asian:normal;font-feature-settings:normal;font-variation-settings:normal;text-indent:0;text-align:start;text-decoration:none;text-decoration-line:none;text-decoration-style:solid;text-decoration-color:#000000;letter-spacing:normal;word-spacing:normal;text-transform:none;writing-mode:lr-tb;direction:ltr;text-orientation:mixed;dominant-baseline:auto;baseline-shift:baseline;text-anchor:start;white-space:normal;shape-padding:0;shape-margin:0;inline-size:0;clip-rule:nonzero;display:inline;overflow:visible;visibility:visible;isolation:auto;mix-blend-mode:normal;color-interpolation:sRGB;color-interpolation-filters:linearRGB;solid-color:#000000;solid-opacity:1;vector-effect:none;fill:#ff8c00;fill-opacity:1;fill-rule:nonzero;stroke:none;stroke-width:7.50001;stroke-linecap:round;stroke-linejoin:round;stroke-miterlimit:4;stroke-dasharray:none;stroke-dashoffset:0;stroke-opacity:1;color-rendering:auto;image-rendering:auto;shape-rendering:auto;text-rendering:auto;enable-background:accumulate;stop-color:#000000;stop-opacity:1"
         d="m 892.6933,338.80054 c -17.4375,0 -31.73438,-6.9375 -42.89063,-20.8125 -11.15625,-13.96875 -16.73437,-31.92188 -16.73437,-53.85938 0,-21.84375 5.53125,-39.70312 16.59375,-53.57812 11.0625,-13.96875 25.40625,-20.95313 43.03125,-20.95313 17.25,0 31.40625,6.98438 42.46875,20.95313 11.15625,13.875 16.73437,31.73437 16.73437,53.57812 0,21.9375 -5.57812,39.89063 -16.73437,53.85938 -11.0625,13.875 -25.21875,20.8125 -42.46875,20.8125 z m 0,-117 c -5.625,0 -9.70313,3.42187 -12.23438,10.26562 -2.4375,6.84375 -3.65625,17.53125 -3.65625,32.0625 0,14.53125 1.21875,25.21875 3.65625,32.0625 2.53125,6.84375 6.60938,10.26563 12.23438,10.26563 10.3125,0 15.46875,-14.10938 15.46875,-42.32813 0,-28.21875 -5.15625,-42.32812 -15.46875,-42.32812 z"
         id="path876" />
      <path
         style="color:#000000;font-style:normal;font-variant:normal;font-weight:bold;font-stretch:condensed;font-size:288px;line-height:1.25;font-family:'Rockwell Condensed';-inkscape-font-specification:'Rockwell Condensed, Bold Condensed';font-variant-ligatures:normal;font-variant-position:normal;font-variant-caps:normal;font-variant-numeric:normal;font-variant-alternates:normal;font-variant-east-asian:normal;font-feature-settings:normal;font-variation-settings:normal;text-indent:0;text-align:start;text-decoration:none;text-decoration-line:none;text-decoration-style:solid;text-decoration-color:#000000;letter-spacing:normal;word-spacing:normal;text-transform:none;writing-mode:lr-tb;direction:ltr;text-orientation:mixed;dominant-baseline:auto;baseline-shift:baseline;text-anchor:start;white-space:normal;shape-padding:0;shape-margin:0;inline-size:0;clip-rule:nonzero;display:inline;overflow:visible;visibility:visible;isolation:auto;mix-blend-mode:normal;color-interpolation:sRGB;color-interpolation-filters:linearRGB;solid-color:#000000;solid-opacity:1;vector-effect:none;fill:#f8f8f8;fill-opacity:0.972549;fill-rule:nonzero;stroke:none;stroke-width:7.50001;stroke-linecap:round;stroke-linejoin:round;stroke-miterlimit:4;stroke-dasharray:none;stroke-dashoffset:0;stroke-opacity:1;color-rendering:auto;image-rendering:auto;shape-rendering:auto;text-rendering:auto;enable-background:accumulate;stop-color:#000000;stop-opacity:1"
         d="m 892.69336,185.84766 c -18.61149,0 -34.29945,7.64316 -45.96289,22.36523 -10e-4,0.001 -0.003,0.002 -0.004,0.004 -10e-4,0.002 -0.002,0.004 -0.004,0.006 -11.65526,14.62363 -17.4043,33.43446 -17.4043,55.90625 0,22.57318 5.80106,41.48249 17.55469,56.19921 a 3.75038,3.75038 0 0 0 0.008,0.01 c 11.75412,14.61856 27.38037,22.21289 45.8125,22.21289 18.25452,0 33.74384,-7.60621 45.39844,-22.22266 l 0.002,-0.002 c 11.75248,-14.71642 17.55273,-33.62517 17.55273,-56.19726 0,-22.47826 -5.80232,-41.29707 -17.55664,-55.91993 -11.65016,-14.70303 -27.14021,-22.36132 -45.39648,-22.36132 z m 0,7.5 c 16.23777,0 29.05575,6.30618 39.5293,19.53125 a 3.75038,3.75038 0 0 0 0.0176,0.0215 c 10.55406,13.12606 15.90625,30.02318 15.90625,51.22852 0,21.30181 -5.35519,38.29875 -15.91406,51.51953 a 3.75038,3.75038 0 0 0 -0.002,0.002 c -10.47021,13.13212 -23.29255,19.40039 -39.53711,19.40039 -16.4387,0 -29.40401,-6.27772 -39.96094,-19.40234 l -0.004,-0.006 c -10e-4,-0.001 -0.003,-0.002 -0.004,-0.004 -10.55371,-13.21938 -15.90625,-30.2132 -15.90625,-51.50976 0,-21.2107 5.31088,-38.11526 15.77539,-51.24024 a 3.75038,3.75038 0 0 0 0.008,-0.01 c 10.46074,-13.2089 23.45749,-19.53125 40.0918,-19.53125 z m 0,24.70312 c -3.57292,0 -6.99808,1.18672 -9.6875,3.44336 -2.68942,2.25664 -4.64207,5.42579 -6.06445,9.27148 a 3.75038,3.75038 0 0 0 -0.0156,0.043 c -2.71896,7.63401 -3.87305,18.57939 -3.87305,33.32032 0,14.74093 1.15409,25.6863 3.87305,33.32031 a 3.75038,3.75038 0 0 0 0.0156,0.043 c 1.42238,3.8457 3.37503,7.01484 6.06445,9.27148 2.68942,2.25664 6.11458,3.44336 9.6875,3.44336 3.43324,0 6.74823,-1.30211 9.29492,-3.625 2.54669,-2.32289 4.40074,-5.51407 5.82813,-9.41992 2.85477,-7.8117 4.0957,-18.69542 4.0957,-33.0332 0,-14.33778 -1.24093,-25.22151 -4.0957,-33.03321 -1.42739,-3.90585 -3.28144,-7.09703 -5.82813,-9.41992 -2.54669,-2.32289 -5.86168,-3.625 -9.29492,-3.625 z m 0,7.5 c 1.72301,0 2.91973,0.46156 4.24023,1.66602 1.3205,1.20445 2.68911,3.30429 3.83985,6.45312 2.30147,6.29767 3.63867,16.57802 3.63867,30.45899 0,13.88097 -1.3372,24.16131 -3.63867,30.45898 -1.15074,3.14884 -2.51935,5.24867 -3.83985,6.45313 -1.3205,1.20445 -2.51722,1.66601 -4.24023,1.66601 -2.05208,0 -3.47848,-0.52421 -4.86719,-1.68945 -1.38507,-1.16219 -2.7326,-3.12262 -3.83984,-6.10742 -2.15179,-6.05642 -3.4336,-16.47527 -3.4336,-30.78125 0,-14.30598 1.28181,-24.72483 3.4336,-30.78125 1.10724,-2.98481 2.45477,-4.94524 3.83984,-6.10743 1.38871,-1.16523 2.81511,-1.68945 4.86719,-1.68945 z"
         id="path878" />
    </g>
    <g
       id="g880"
       style="opacity:1">
      <path
         style="color:#000000;font-style:normal;font-variant:normal;font-weight:bold;font-stretch:condensed;font-size:288px;line-height:1.25;font-family:'Rockwell Condensed';-inkscape-font-specification:'Rockwell Condensed, Bold Condensed';font-variant-ligatures:normal;font-variant-position:normal;font-variant-caps:normal;font-variant-numeric:normal;font-variant-alternates:normal;font-variant-east-asian:normal;font-feature-settings:normal;font-variation-settings:normal;text-indent:0;text-align:start;text-decoration:none;text-decoration-line:none;text-decoration-style:solid;text-decoration-color:#000000;letter-spacing:normal;word-spacing:normal;text-transform:none;writing-mode:lr-tb;direction:ltr;text-orientation:mixed;dominant-baseline:auto;baseline-shift:baseline;text-anchor:start;white-space:normal;shape-padding:0;shape-margin:0;inline-size:0;clip-rule:nonzero;display:inline;overflow:visible;visibility:visible;isolation:auto;mix-blend-mode:normal;color-interpolation:sRGB;color-interpolation-filters:linearRGB;solid-color:#000000;solid-opacity:1;vector-effect:none;fill:#ff8c00;fill-opacity:1;fill-rule:nonzero;stroke:none;stroke-width:7.50001;stroke-linecap:round;stroke-linejoin:round;stroke-miterlimit:4;stroke-dasharray:none;stroke-dashoffset:0;stroke-opacity:1;color-rendering:auto;image-rendering:auto;shape-rendering:auto;text-rendering:auto;enable-background:accumulate;stop-color:#000000;stop-opacity:1"
         d="m 968.77142,334.72241 v -30.23437 h 15.60938 v -80.57813 h -15.60938 v -30.375 h 57.65628 v 15.04688 h 1.125 c 6.2812,-11.53125 16.4531,-17.29688 30.5156,-17.29688 10.875,0 19.6406,4.07813 26.2969,12.23438 6.6562,8.0625 9.9843,19.17187 9.9843,33.32812 v 67.64063 h 14.2032 v 30.23437 h -56.25 v -90.98437 c 0,-7.5 -0.8438,-12.75 -2.5313,-15.75 -1.6875,-3 -4.7812,-4.5 -9.2812,-4.5 -2.3438,0 -4.3594,0.42187 -6.0469,1.26562 -1.6875,0.84375 -4.3594,2.67188 -8.0156,5.48438 v 74.25 h 12.0937 v 30.23437 z"
         id="path882" />
      <path
         style="color:#000000;font-style:normal;font-variant:normal;font-weight:bold;font-stretch:condensed;font-size:288px;line-height:1.25;font-family:'Rockwell Condensed';-inkscape-font-specification:'Rockwell Condensed, Bold Condensed';font-variant-ligatures:normal;font-variant-position:normal;font-variant-caps:normal;font-variant-numeric:normal;font-variant-alternates:normal;font-variant-east-asian:normal;font-feature-settings:normal;font-variation-settings:normal;text-indent:0;text-align:start;text-decoration:none;text-decoration-line:none;text-decoration-style:solid;text-decoration-color:#000000;letter-spacing:normal;word-spacing:normal;text-transform:none;writing-mode:lr-tb;direction:ltr;text-orientation:mixed;dominant-baseline:auto;baseline-shift:baseline;text-anchor:start;white-space:normal;shape-padding:0;shape-margin:0;inline-size:0;clip-rule:nonzero;display:inline;overflow:visible;visibility:visible;isolation:auto;mix-blend-mode:normal;color-interpolation:sRGB;color-interpolation-filters:linearRGB;solid-color:#000000;solid-opacity:1;vector-effect:none;fill:#f8f8f8;fill-opacity:0.972549;fill-rule:nonzero;stroke:none;stroke-width:7.50001;stroke-linecap:round;stroke-linejoin:round;stroke-miterlimit:4;stroke-dasharray:none;stroke-dashoffset:0;stroke-opacity:1;color-rendering:auto;image-rendering:auto;shape-rendering:auto;text-rendering:auto;enable-background:accumulate;stop-color:#000000;stop-opacity:1"
         d="m 1058.0684,187.53516 c -11.3907,0 -20.9442,3.82277 -27.8907,11.09765 v -5.09765 a 3.75038,3.75038 0 0 0 -3.75,-3.75 h -57.65622 a 3.75038,3.75038 0 0 0 -3.75,3.75 v 30.375 a 3.75038,3.75038 0 0 0 3.75,3.75 h 11.85938 v 73.07812 h -11.85938 a 3.75038,3.75038 0 0 0 -3.75,3.75 v 30.23438 a 3.75038,3.75038 0 0 0 3.75,3.75 h 69.75002 a 3.75038,3.75038 0 0 0 3.75,-3.75 v -30.23438 a 3.75038,3.75038 0 0 0 -3.75,-3.75 h -8.3438 v -68.53516 c 2.5632,-1.89043 5.0079,-3.62795 5.9434,-4.0957 1.0663,-0.53316 2.4753,-0.86914 4.3691,-0.86914 3.6667,0 5.0245,0.82932 6.0137,2.58789 1.0329,1.83617 2.0488,6.69337 2.0488,13.91211 v 90.98438 a 3.75038,3.75038 0 0 0 3.75,3.75 h 56.25 a 3.75038,3.75038 0 0 0 3.75,-3.75 v -30.23438 a 3.75038,3.75038 0 0 0 -3.75,-3.75 h -10.4531 v -63.89062 c 0,-14.74101 -3.4987,-26.81606 -10.8379,-35.70899 -7.2881,-8.92414 -17.3857,-13.60351 -29.1933,-13.60351 z m 0,7.5 c 9.9375,0 17.3668,3.47427 23.3906,10.85546 a 3.75038,3.75038 0 0 0 0.014,0.0156 c 5.9701,7.23156 9.1269,17.3729 9.1269,30.94141 v 67.64062 a 3.75038,3.75038 0 0 0 3.75,3.75 h 10.4531 v 22.73438 h -48.75 v -87.23438 c 0,-7.78125 -0.6714,-13.42406 -3.0136,-17.58789 -2.3858,-4.24143 -7.2155,-6.41211 -12.5489,-6.41211 -2.7938,0 -5.4159,0.50778 -7.7246,1.66211 -2.2093,1.10464 -4.8914,2.99323 -8.625,5.86523 a 3.75038,3.75038 0 0 0 -1.4629,2.97266 v 74.25 a 3.75038,3.75038 0 0 0 3.75,3.75 h 8.3438 v 22.73438 h -62.25002 v -22.73438 h 11.85938 a 3.75038,3.75038 0 0 0 3.75,-3.75 v -80.57812 a 3.75038,3.75038 0 0 0 -3.75,-3.75 h -11.85938 v -22.875 H 1022.678 V 208.582 a 3.75038,3.75038 0 0 0 3.75,3.75 h 1.125 a 3.75038,3.75038 0 0 0 3.293,-1.95703 c 5.7189,-10.49889 14.1851,-15.33984 27.2227,-15.33984 z"
         id="path884" />
    </g>
    <g
       id="g886"
       style="opacity:1">
      <path
         style="color:#000000;font-style:normal;font-variant:normal;font-weight:bold;font-stretch:condensed;font-size:288px;line-height:1.25;font-family:'Rockwell Condensed';-inkscape-font-specification:'Rockwell Condensed, Bold Condensed';font-variant-ligatures:normal;font-variant-position:normal;font-variant-caps:normal;font-variant-numeric:normal;font-variant-alternates:normal;font-variant-east-asian:normal;font-feature-settings:normal;font-variation-settings:normal;text-indent:0;text-align:start;text-decoration:none;text-decoration-line:none;text-decoration-style:solid;text-decoration-color:#000000;letter-spacing:normal;word-spacing:normal;text-transform:none;writing-mode:lr-tb;direction:ltr;text-orientation:mixed;dominant-baseline:auto;baseline-shift:baseline;text-anchor:start;white-space:normal;shape-padding:0;shape-margin:0;inline-size:0;clip-rule:nonzero;display:inline;overflow:visible;visibility:visible;isolation:auto;mix-blend-mode:normal;color-interpolation:sRGB;color-interpolation-filters:linearRGB;solid-color:#000000;solid-opacity:1;vector-effect:none;fill:#ff8c00;fill-opacity:1;fill-rule:nonzero;stroke:none;stroke-width:7.50001;stroke-linecap:round;stroke-linejoin:round;stroke-miterlimit:4;stroke-dasharray:none;stroke-dashoffset:0;stroke-opacity:1;color-rendering:auto;image-rendering:auto;shape-rendering:auto;text-rendering:auto;enable-background:accumulate;stop-color:#000000;stop-opacity:1"
         d="m 1192.3652,302.80054 v 31.35937 c -8.8125,3.09375 -17.3438,4.64063 -25.5938,4.64063 -22.3125,0 -33.4687,-13.45313 -33.4687,-40.35938 v -74.53125 h -12.6563 v -30.375 h 12.6563 v -17.71875 l 42.0468,-32.90625 v 50.625 h 17.0157 v 30.375 h -17.0157 v 63 c 0,6.28125 0.7969,10.73438 2.3907,13.35938 1.5937,2.625 4.3593,3.9375 8.2968,3.9375 1.9688,0 4.0782,-0.46875 6.3282,-1.40625 z"
         id="path888" />
      <path
         style="color:#000000;font-style:normal;font-variant:normal;font-weight:bold;font-stretch:condensed;font-size:288px;line-height:1.25;font-family:'Rockwell Condensed';-inkscape-font-specification:'Rockwell Condensed, Bold Condensed';font-variant-ligatures:normal;font-variant-position:normal;font-variant-caps:normal;font-variant-numeric:normal;font-variant-alternates:normal;font-variant-east-asian:normal;font-feature-settings:normal;font-variation-settings:normal;text-indent:0;text-align:start;text-decoration:none;text-decoration-line:none;text-decoration-style:solid;text-decoration-color:#000000;letter-spacing:normal;word-spacing:normal;text-transform:none;writing-mode:lr-tb;direction:ltr;text-orientation:mixed;dominant-baseline:auto;baseline-shift:baseline;text-anchor:start;white-space:normal;shape-padding:0;shape-margin:0;inline-size:0;clip-rule:nonzero;display:inline;overflow:visible;visibility:visible;isolation:auto;mix-blend-mode:normal;color-interpolation:sRGB;color-interpolation-filters:linearRGB;solid-color:#000000;solid-opacity:1;vector-effect:none;fill:#f8f8f8;fill-opacity:0.972549;fill-rule:nonzero;stroke:none;stroke-width:7.50001;stroke-linecap:round;stroke-linejoin:round;stroke-miterlimit:4;stroke-dasharray:none;stroke-dashoffset:0;stroke-opacity:1;color-rendering:auto;image-rendering:auto;shape-rendering:auto;text-rendering:auto;enable-background:accumulate;stop-color:#000000;stop-opacity:1"
         d="m 1175.377,139.16016 a 3.75038,3.75038 0 0 0 -2.3379,0.79687 l -42.0469,32.90625 a 3.75038,3.75038 0 0 0 -1.4395,2.95313 v 13.96875 h -8.9062 a 3.75038,3.75038 0 0 0 -3.75,3.75 v 30.375 a 3.75038,3.75038 0 0 0 3.75,3.75 h 8.9062 v 70.78125 c 0,13.97142 2.8682,24.98996 9.2305,32.66211 6.3623,7.67214 16.0784,11.44726 27.9883,11.44726 8.7187,0 17.6783,-1.63861 26.8359,-4.85351 a 3.75038,3.75038 0 0 0 2.5078,-3.53711 v -31.35938 a 3.75038,3.75038 0 0 0 -5.1914,-3.46094 c -1.8915,0.78815 -3.5131,1.11719 -4.8867,1.11719 -3.1041,0 -4.209,-0.68082 -5.0918,-2.13476 -0.9051,-1.49079 -1.8457,-5.44803 -1.8457,-11.41211 v -59.25 h 13.2656 a 3.75038,3.75038 0 0 0 3.75,-3.75 v -30.375 a 3.75038,3.75038 0 0 0 -3.75,-3.75 h -13.2656 v -46.875 a 3.75038,3.75038 0 0 0 -3.7226,-3.75 z m -3.7774,11.44531 v 42.92969 a 3.75038,3.75038 0 0 0 3.75,3.75 h 13.2656 v 22.875 h -13.2656 a 3.75038,3.75038 0 0 0 -3.75,3.75 v 63 c 0,6.59842 0.6531,11.54547 2.9356,15.30468 2.3047,3.79606 6.7311,5.74219 11.5019,5.74219 0.8543,0 1.7172,-0.16279 2.5781,-0.29297 v 23.73438 c -7.5574,2.40411 -14.8389,3.65234 -21.8437,3.65234 -10.4026,0 -17.4209,-2.95339 -22.2149,-8.73437 -4.7939,-5.78099 -7.5039,-14.94017 -7.5039,-27.875 v -74.53125 a 3.75038,3.75038 0 0 0 -3.75,-3.75 h -8.9062 v -22.875 h 8.9062 a 3.75038,3.75038 0 0 0 3.75,-3.75 v -15.89258 z"
         id="path890" />
    </g>
    <g
       id="g892"
       style="opacity:1">
      <path
         style="color:#000000;font-style:normal;font-variant:normal;font-weight:bold;font-stretch:condensed;font-size:288px;line-height:1.25;font-family:'Rockwell Condensed';-inkscape-font-specification:'Rockwell Condensed, Bold Condensed';font-variant-ligatures:normal;font-variant-position:normal;font-variant-caps:normal;font-variant-numeric:normal;font-variant-alternates:normal;font-variant-east-asian:normal;font-feature-settings:normal;font-variation-settings:normal;text-indent:0;text-align:start;text-decoration:none;text-decoration-line:none;text-decoration-style:solid;text-decoration-color:#000000;letter-spacing:normal;word-spacing:normal;text-transform:none;writing-mode:lr-tb;direction:ltr;text-orientation:mixed;dominant-baseline:auto;baseline-shift:baseline;text-anchor:start;white-space:normal;shape-padding:0;shape-margin:0;inline-size:0;clip-rule:nonzero;display:inline;overflow:visible;visibility:visible;isolation:auto;mix-blend-mode:normal;color-interpolation:sRGB;color-interpolation-filters:linearRGB;solid-color:#000000;solid-opacity:1;vector-effect:none;fill:#ff8c00;fill-opacity:1;fill-rule:nonzero;stroke:none;stroke-width:7.50001;stroke-linecap:round;stroke-linejoin:round;stroke-miterlimit:4;stroke-dasharray:none;stroke-dashoffset:0;stroke-opacity:1;color-rendering:auto;image-rendering:auto;shape-rendering:auto;text-rendering:auto;enable-background:accumulate;stop-color:#000000;stop-opacity:1"
         d="m 1285.3183,278.89429 32.4844,12.09375 c -5.3438,31.875 -22.3126,47.8125 -50.9063,47.8125 -17.25,0 -30.8437,-6.75 -40.7812,-20.25 -9.8438,-13.5 -14.7657,-32.10938 -14.7657,-55.82813 0,-21.375 4.2656,-38.625 12.7969,-51.75 8.625,-13.125 19.875,-19.6875 33.75,-19.6875 13.3125,0 22.2657,5.85938 26.8594,17.57813 h 0.5625 v -15.32813 h 30.2344 v 57.09375 h -30.2344 c -0.6563,-10.21875 -2.2969,-17.76562 -4.9219,-22.64062 -2.5313,-4.875 -6.375,-7.3125 -11.5312,-7.3125 -5.4375,0 -9.0938,3.23437 -10.9688,9.70312 -1.875,6.375 -2.8125,17.15625 -2.8125,32.34375 0,16.59375 0.8906,28.40625 2.6719,35.4375 1.875,6.9375 6.1875,10.40625 12.9375,10.40625 4.6875,0 8.1093,-2.39062 10.2656,-7.17187 2.1563,-4.78125 3.6094,-12.28125 4.3594,-22.5 z"
         id="path894" />
      <path
         style="color:#000000;font-style:normal;font-variant:normal;font-weight:bold;font-stretch:condensed;font-size:288px;line-height:1.25;font-family:'Rockwell Condensed';-inkscape-font-specification:'Rockwell Condensed, Bold Condensed';font-variant-ligatures:normal;font-variant-position:normal;font-variant-caps:normal;font-variant-numeric:normal;font-variant-alternates:normal;font-variant-east-asian:normal;font-feature-settings:normal;font-variation-settings:normal;text-indent:0;text-align:start;text-decoration:none;text-decoration-line:none;text-decoration-style:solid;text-decoration-color:#000000;letter-spacing:normal;word-spacing:normal;text-transform:none;writing-mode:lr-tb;direction:ltr;text-orientation:mixed;dominant-baseline:auto;baseline-shift:baseline;text-anchor:start;white-space:normal;shape-padding:0;shape-margin:0;inline-size:0;clip-rule:nonzero;display:inline;overflow:visible;visibility:visible;isolation:auto;mix-blend-mode:normal;color-interpolation:sRGB;color-interpolation-filters:linearRGB;solid-color:#000000;solid-opacity:1;vector-effect:none;fill:#f8f8f8;fill-opacity:0.972549;fill-rule:nonzero;stroke:none;stroke-width:7.50001;stroke-linecap:round;stroke-linejoin:round;stroke-miterlimit:4;stroke-dasharray:none;stroke-dashoffset:0;stroke-opacity:1;color-rendering:auto;image-rendering:auto;shape-rendering:auto;text-rendering:auto;enable-background:accumulate;stop-color:#000000;stop-opacity:1"
         d="m 1257.8965,187.53516 c -15.0574,0 -27.7529,7.48068 -36.8848,21.37695 a 3.75038,3.75038 0 0 0 -0.01,0.0156 c -9.0383,13.90493 -13.4024,31.92102 -13.4024,53.79493 0,24.23753 5.0266,43.69233 15.4863,58.03711 a 3.75038,3.75038 0 0 0 0.01,0.0137 c 10.5516,14.33426 25.5725,21.77734 43.8008,21.77734 14.9936,0 27.4877,-4.28235 36.7383,-12.9707 9.2505,-8.68835 15.1051,-21.49733 17.8672,-37.97266 a 3.75038,3.75038 0 0 0 -2.3907,-4.13281 l -32.4843,-12.09375 a 3.75038,3.75038 0 0 0 -5.0489,3.23828 c -0.7339,9.99968 -2.2254,17.21727 -4.0371,21.23438 -1.7376,3.85292 -3.4352,4.96289 -6.8476,4.96289 -2.7327,0 -4.5356,-0.63795 -5.9473,-1.77344 -1.4071,-1.13178 -2.5718,-2.93306 -3.3613,-5.83789 -1.6046,-6.35674 -2.5508,-18.04654 -2.5508,-34.48242 0,-15.03318 1.0126,-25.68353 2.6601,-31.28516 a 3.75038,3.75038 0 0 0 0,-0.0156 c 0.8026,-2.76889 1.8941,-4.50579 3.0313,-5.51172 1.1371,-1.00594 2.3607,-1.48438 4.3359,-1.48438 3.9744,0 6.1518,1.34021 8.2032,5.29102 a 3.75038,3.75038 0 0 0 0.025,0.0488 c 2.1682,4.02685 3.8442,11.16584 4.4824,21.10352 a 3.75038,3.75038 0 0 0 3.7422,3.50977 h 30.2343 a 3.75038,3.75038 0 0 0 3.75,-3.75 v -57.09375 a 3.75038,3.75038 0 0 0 -3.75,-3.75 h -30.2343 a 3.75038,3.75038 0 0 0 -3.75,3.75 v 3.43554 c -5.8098,-6.10551 -13.9035,-9.43554 -23.6719,-9.43554 z m 0,7.5 c 12.2122,0 19.2227,4.62447 23.3672,15.19726 a 3.75038,3.75038 0 0 0 3.4922,2.38086 h 0.5625 a 3.75038,3.75038 0 0 0 3.75,-3.75 v -11.57812 h 22.7343 v 49.59375 h -23.0683 c -0.7947,-8.7139 -2.3167,-15.60025 -5.0254,-20.64258 -3.0141,-5.78389 -8.5151,-9.31055 -14.8438,-9.31055 -3.4623,0 -6.7855,1.13875 -9.3047,3.36719 -2.5181,2.22755 -4.1911,5.33918 -5.2636,9.03711 -5e-4,10e-4 0,0.002 0,0.004 -2.0998,7.14859 -2.9609,18.0556 -2.9609,33.38868 0,16.72793 0.8334,28.64541 2.7871,36.35742 a 3.75038,3.75038 0 0 0 0.014,0.0586 c 1.0853,4.01584 3.0113,7.41479 5.9121,9.74805 2.9008,2.33326 6.6291,3.42969 10.6465,3.42969 5.9624,0 11.1086,-3.67129 13.6836,-9.38086 2.0547,-4.55615 3.2473,-11.06434 4.0781,-18.87305 l 24.9687,9.29688 c -2.7531,13.77298 -7.7407,24.00919 -14.9218,30.7539 -7.7183,7.24915 -18.0054,10.9375 -31.6055,10.9375 -16.2658,0 -28.4299,-6.05269 -37.752,-18.70898 l -0.01,-0.008 c 0,-0.002 0,-0.004 0,-0.006 -9.2215,-12.65436 -14.0352,-30.41367 -14.0352,-53.60546 0,-20.8675 4.1638,-37.34801 12.1816,-49.69141 v -0.004 c 0,-0.004 0,-0.008 0.01,-0.0117 8.1161,-12.34262 17.9184,-17.98046 30.6055,-17.98046 z"
         id="path896" />
    </g>
    <g
       id="g898"
       style="opacity:1">
      <path
         style="color:#000000;font-style:normal;font-variant:normal;font-weight:bold;font-stretch:condensed;font-size:288px;line-height:1.25;font-family:'Rockwell Condensed';-inkscape-font-specification:'Rockwell Condensed, Bold Condensed';font-variant-ligatures:normal;font-variant-position:normal;font-variant-caps:normal;font-variant-numeric:normal;font-variant-alternates:normal;font-variant-east-asian:normal;font-feature-settings:normal;font-variation-settings:normal;text-indent:0;text-align:start;text-decoration:none;text-decoration-line:none;text-decoration-style:solid;text-decoration-color:#000000;letter-spacing:normal;word-spacing:normal;text-transform:none;writing-mode:lr-tb;direction:ltr;text-orientation:mixed;dominant-baseline:auto;baseline-shift:baseline;text-anchor:start;white-space:normal;shape-padding:0;shape-margin:0;inline-size:0;clip-rule:nonzero;display:inline;overflow:visible;visibility:visible;isolation:auto;mix-blend-mode:normal;color-interpolation:sRGB;color-interpolation-filters:linearRGB;solid-color:#000000;solid-opacity:1;vector-effect:none;fill:#ff8c00;fill-opacity:1;fill-rule:nonzero;stroke:none;stroke-width:7.50001;stroke-linecap:round;stroke-linejoin:round;stroke-miterlimit:4;stroke-dasharray:none;stroke-dashoffset:0;stroke-opacity:1;color-rendering:auto;image-rendering:auto;shape-rendering:auto;text-rendering:auto;enable-background:accumulate;stop-color:#000000;stop-opacity:1"
         d="m 1331.8652,334.72241 v -30.23437 h 15.4687 v -141.75 h -15.4687 v -30.23438 h 57.5156 v 69.75 c 10.5,-8.4375 20.6719,-12.65625 30.5156,-12.65625 11.9063,0 21.1875,4.17188 27.8438,12.51563 6.6562,8.34375 9.9843,20.10937 9.9843,35.29687 v 67.07813 h 14.0625 v 30.23437 h -56.1093 v -93.65625 c 0,-6.9375 -0.8906,-11.85937 -2.6719,-14.76562 -1.7813,-3 -4.8281,-4.5 -9.1406,-4.5 -4.125,0 -8.9531,2.01562 -14.4844,6.04687 v 76.64063 h 12.375 v 30.23437 z"
         id="path900" />
      <path
         style="color:#000000;font-style:normal;font-variant:normal;font-weight:bold;font-stretch:condensed;font-size:288px;line-height:1.25;font-family:'Rockwell Condensed';-inkscape-font-specification:'Rockwell Condensed, Bold Condensed';font-variant-ligatures:normal;font-variant-position:normal;font-variant-caps:normal;font-variant-numeric:normal;font-variant-alternates:normal;font-variant-east-asian:normal;font-feature-settings:normal;font-variation-settings:normal;text-indent:0;text-align:start;text-decoration:none;text-decoration-line:none;text-decoration-style:solid;text-decoration-color:#000000;letter-spacing:normal;word-spacing:normal;text-transform:none;writing-mode:lr-tb;direction:ltr;text-orientation:mixed;dominant-baseline:auto;baseline-shift:baseline;text-anchor:start;white-space:normal;shape-padding:0;shape-margin:0;inline-size:0;clip-rule:nonzero;display:inline;overflow:visible;visibility:visible;isolation:auto;mix-blend-mode:normal;color-interpolation:sRGB;color-interpolation-filters:linearRGB;solid-color:#000000;solid-opacity:1;vector-effect:none;fill:#f8f8f8;fill-opacity:0.972549;fill-rule:nonzero;stroke:none;stroke-width:7.50001;stroke-linecap:round;stroke-linejoin:round;stroke-miterlimit:4;stroke-dasharray:none;stroke-dashoffset:0;stroke-opacity:1;color-rendering:auto;image-rendering:auto;shape-rendering:auto;text-rendering:auto;enable-background:accumulate;stop-color:#000000;stop-opacity:1"
         d="m 1331.8652,128.75391 a 3.75038,3.75038 0 0 0 -3.75,3.75 v 30.23437 a 3.75038,3.75038 0 0 0 3.75,3.75 h 11.7188 v 134.25 h -11.7188 a 3.75038,3.75038 0 0 0 -3.75,3.75 v 30.23438 a 3.75038,3.75038 0 0 0 3.75,3.75 h 69.8907 a 3.75038,3.75038 0 0 0 3.75,-3.75 v -30.23438 a 3.75038,3.75038 0 0 0 -3.75,-3.75 h -8.625 v -70.75781 c 4.4081,-2.92744 8.151,-4.42969 10.7343,-4.42969 3.4429,0 4.813,0.80638 5.916,2.66406 a 3.75038,3.75038 0 0 0 0.027,0.0449 c 1.0865,1.77277 2.1191,6.19009 2.1191,12.80664 v 93.65625 a 3.75038,3.75038 0 0 0 3.75,3.75 h 56.1094 a 3.75038,3.75038 0 0 0 3.75,-3.75 v -30.23438 a 3.75038,3.75038 0 0 0 -3.75,-3.75 h -10.3125 v -63.32812 c 0,-15.73534 -3.4548,-28.42393 -10.8027,-37.63477 -7.3361,-9.19584 -17.9932,-13.92773 -30.7754,-13.92773 -8.89,0 -17.8372,3.26002 -26.7656,9.16601 v -62.50976 a 3.75038,3.75038 0 0 0 -3.75,-3.75 z m 3.75,7.5 h 50.0157 v 66 a 3.75038,3.75038 0 0 0 6.0996,2.92382 c 10.0539,-8.07907 19.3937,-11.83007 28.166,-11.83007 11.0303,0 18.9356,3.61185 24.9121,11.10351 5.9645,7.47665 9.166,18.31932 9.166,32.95899 v 67.07812 a 3.75038,3.75038 0 0 0 3.75,3.75 h 10.3125 v 22.73438 h -48.6094 v -89.90625 c 0,-7.24364 -0.749,-12.66014 -3.2129,-16.69727 -2.4629,-4.12898 -7.1761,-6.31836 -12.3496,-6.31836 -5.3466,0 -10.8035,2.47304 -16.6933,6.76563 a 3.75038,3.75038 0 0 0 -1.541,3.03125 v 76.64062 a 3.75038,3.75038 0 0 0 3.75,3.75 h 8.625 v 22.73438 h -62.3907 v -22.73438 h 11.7188 a 3.75038,3.75038 0 0 0 3.75,-3.75 v -141.75 a 3.75038,3.75038 0 0 0 -3.75,-3.75 h -11.7188 z"
         id="path902" />
    </g>
    <g
       id="g904"
       style="opacity:1">
      <path
         style="color:#000000;font-style:normal;font-variant:normal;font-weight:bold;font-stretch:condensed;font-size:288px;line-height:1.25;font-family:'Rockwell Condensed';-inkscape-font-specification:'Rockwell Condensed, Bold Condensed';font-variant-ligatures:normal;font-variant-position:normal;font-variant-caps:normal;font-variant-numeric:normal;font-variant-alternates:normal;font-variant-east-asian:normal;font-feature-settings:normal;font-variation-settings:normal;text-indent:0;text-align:start;text-decoration:none;text-decoration-line:none;text-decoration-style:solid;text-decoration-color:#000000;letter-spacing:normal;word-spacing:normal;text-transform:none;writing-mode:lr-tb;direction:ltr;text-orientation:mixed;dominant-baseline:auto;baseline-shift:baseline;text-anchor:start;white-space:normal;shape-padding:0;shape-margin:0;inline-size:0;clip-rule:nonzero;display:inline;overflow:visible;visibility:visible;isolation:auto;mix-blend-mode:normal;color-interpolation:sRGB;color-interpolation-filters:linearRGB;solid-color:#000000;solid-opacity:1;vector-effect:none;fill:#ff8c00;fill-opacity:1;fill-rule:nonzero;stroke:none;stroke-width:7.50001;stroke-linecap:round;stroke-linejoin:round;stroke-miterlimit:4;stroke-dasharray:none;stroke-dashoffset:0;stroke-opacity:1;color-rendering:auto;image-rendering:auto;shape-rendering:auto;text-rendering:auto;enable-background:accumulate;stop-color:#000000;stop-opacity:1"
         d="m 1611.5683,334.72241 h -55.2656 v -10.96875 c -8.5313,8.625 -18.2344,12.9375 -29.1094,12.9375 -10.9687,0 -20.1562,-4.3125 -27.5625,-12.9375 -7.3125,-8.625 -10.9688,-19.54687 -10.9688,-32.76562 0,-13.5 3.9844,-24.70313 11.9532,-33.60938 7.9687,-8.90625 18.0937,-13.35937 30.375,-13.35937 8.5312,0 16.9687,2.85937 25.3125,8.57812 v -14.90625 c 0,-7.59375 -0.9844,-12.9375 -2.9532,-16.03125 -1.875,-3.1875 -5.2969,-4.78125 -10.2656,-4.78125 -6.6563,0 -11.25,3.65625 -13.7812,10.96875 l -37.8282,-7.73437 c 11.1563,-20.34375 30.0938,-30.51563 56.8125,-30.51563 15.5625,0 27.7969,3.60938 36.7032,10.82813 8.9062,7.21875 13.3593,17.8125 13.3593,31.78125 v 72.28125 h 13.2188 z m -55.2656,-36.28125 v -21.375 c -3.5625,-4.40625 -7.5938,-6.60937 -12.0938,-6.60937 -4.125,0 -7.4062,1.73437 -9.8437,5.20312 -2.4375,3.375 -3.6563,7.875 -3.6563,13.5 0,5.53125 1.125,9.79688 3.375,12.79688 2.3437,3 5.5312,4.5 9.5625,4.5 4.9687,0 9.1875,-2.67188 12.6563,-8.01563 z"
         id="path906" />
      <path
         style="color:#000000;font-style:normal;font-variant:normal;font-weight:bold;font-stretch:condensed;font-size:288px;line-height:1.25;font-family:'Rockwell Condensed';-inkscape-font-specification:'Rockwell Condensed, Bold Condensed';font-variant-ligatures:normal;font-variant-position:normal;font-variant-caps:normal;font-variant-numeric:normal;font-variant-alternates:normal;font-variant-east-asian:normal;font-feature-settings:normal;font-variation-settings:normal;text-indent:0;text-align:start;text-decoration:none;text-decoration-line:none;text-decoration-style:solid;text-decoration-color:#000000;letter-spacing:normal;word-spacing:normal;text-transform:none;writing-mode:lr-tb;direction:ltr;text-orientation:mixed;dominant-baseline:auto;baseline-shift:baseline;text-anchor:start;white-space:normal;shape-padding:0;shape-margin:0;inline-size:0;clip-rule:nonzero;display:inline;overflow:visible;visibility:visible;isolation:auto;mix-blend-mode:normal;color-interpolation:sRGB;color-interpolation-filters:linearRGB;solid-color:#000000;solid-opacity:1;vector-effect:none;fill:#f8f8f8;fill-opacity:0.972549;fill-rule:nonzero;stroke:none;stroke-width:7.50001;stroke-linecap:round;stroke-linejoin:round;stroke-miterlimit:4;stroke-dasharray:none;stroke-dashoffset:0;stroke-opacity:1;color-rendering:auto;image-rendering:auto;shape-rendering:auto;text-rendering:auto;enable-background:accumulate;stop-color:#000000;stop-opacity:1"
         d="m 1548.2871,185.84766 c -27.6705,0 -48.3384,11.01247 -60.1016,32.46289 a 3.75038,3.75038 0 0 0 2.5372,5.47656 l 37.8281,7.73437 a 3.75038,3.75038 0 0 0 4.2949,-2.44726 c 1.0994,-3.17616 2.5304,-5.241 4.1367,-6.51953 1.6064,-1.27854 3.4601,-1.92578 6.1016,-1.92578 4.1668,0 5.8922,0.99189 7.0332,2.93164 a 3.75038,3.75038 0 0 0 0.068,0.11328 c 1.2227,1.92131 2.3672,6.74791 2.3672,14.01758 V 246 c -7.0241,-3.73289 -14.2465,-5.73047 -21.5625,-5.73047 -13.1877,0 -24.5628,4.9897 -33.1699,14.60938 -8.5966,9.60792 -12.9082,21.87152 -12.9082,36.10937 0,13.91024 3.9338,25.84562 11.8574,35.19141 a 3.75038,3.75038 0 0 0 0.016,0.0176 c 8.0023,9.31918 18.4565,14.24414 30.4082,14.24414 9.1973,0 17.7375,-2.99512 25.3593,-8.58789 v 2.86914 a 3.75038,3.75038 0 0 0 3.75,3.75 h 55.2657 a 3.75038,3.75038 0 0 0 3.75,-3.75 V 304.4883 a 3.75038,3.75038 0 0 0 -3.75,-3.75 h -9.4688 v -68.53125 c 0,-14.76573 -4.9226,-26.73153 -14.748,-34.69531 -9.7363,-7.89152 -22.9221,-11.66406 -39.0645,-11.66406 z m 0,7.5 c 14.9827,0 26.2656,3.44424 34.3418,9.99023 7.987,6.47371 11.9707,15.69736 11.9707,28.86914 v 72.28125 a 3.75038,3.75038 0 0 0 3.75,3.75 h 9.4688 v 22.73438 h -47.7657 v -7.21875 a 3.75038,3.75038 0 0 0 -6.416,-2.63672 c -7.971,8.05861 -16.5597,11.82422 -26.4433,11.82422 -9.984,0 -17.9036,-3.69919 -24.7129,-11.62696 0,-0.001 0,-0.002 0,-0.004 -6.6918,-7.9014 -10.0645,-17.80407 -10.0645,-30.32227 0,-12.76215 3.6571,-22.90479 10.9981,-31.10937 7.3304,-8.19282 16.2053,-12.10938 27.58,-12.10938 7.6933,0 15.3412,2.54008 23.1934,7.92188 a 3.75038,3.75038 0 0 0 5.8691,-3.09375 v -14.90625 c 0,-7.87921 -0.8225,-13.71569 -3.5058,-17.97657 -2.6178,-4.40247 -7.7135,-6.58593 -13.4629,-6.58593 -4.0148,0 -7.7861,1.18087 -10.7735,3.55859 -2.1832,1.73767 -3.7712,4.18053 -5.1015,6.9043 l -29.668,-6.06641 c 10.698,-16.19676 27.0741,-24.17773 50.7461,-24.17773 z m -4.0781,73.35937 c -5.1692,0 -9.8883,2.50886 -12.8985,6.78125 -3.0054,4.17343 -4.3515,9.51599 -4.3515,15.67188 0,6.03972 1.2112,11.16187 4.125,15.04687 a 3.75038,3.75038 0 0 0 0.045,0.0586 c 2.9859,3.82197 7.5561,5.94141 12.5176,5.94141 6.3131,0 11.8867,-3.69497 15.8008,-9.72461 a 3.75038,3.75038 0 0 0 0.6054,-2.04101 v -21.375 a 3.75038,3.75038 0 0 0 -0.8339,-2.35743 c -4.0479,-5.00654 -9.2859,-8.00195 -15.0098,-8.00195 z m 0,7.5 c 2.9753,0 5.5858,1.26335 8.3437,4.32813 v 18.65625 c -2.8041,3.97354 -5.5253,5.51562 -8.9062,5.51562 -3.0845,0 -4.8845,-0.88052 -6.5781,-3.0332 -1.5756,-2.11685 -2.6094,-5.51094 -2.6094,-10.51367 0,-5.08333 1.0867,-8.73133 2.9453,-11.30469 a 3.75038,3.75038 0 0 0 0.029,-0.0391 c 1.8653,-2.65455 3.7015,-3.60938 6.7754,-3.60938 z"
         id="path908" />
    </g>
    <g
       id="g910"
       style="opacity:1">
      <path
         style="color:#000000;font-style:normal;font-variant:normal;font-weight:bold;font-stretch:condensed;font-size:288px;line-height:1.25;font-family:'Rockwell Condensed';-inkscape-font-specification:'Rockwell Condensed, Bold Condensed';font-variant-ligatures:normal;font-variant-position:normal;font-variant-caps:normal;font-variant-numeric:normal;font-variant-alternates:normal;font-variant-east-asian:normal;font-feature-settings:normal;font-variation-settings:normal;text-indent:0;text-align:start;text-decoration:none;text-decoration-line:none;text-decoration-style:solid;text-decoration-color:#000000;letter-spacing:normal;word-spacing:normal;text-transform:none;writing-mode:lr-tb;direction:ltr;text-orientation:mixed;dominant-baseline:auto;baseline-shift:baseline;text-anchor:start;white-space:normal;shape-padding:0;shape-margin:0;inline-size:0;clip-rule:nonzero;display:inline;overflow:visible;visibility:visible;isolation:auto;mix-blend-mode:normal;color-interpolation:sRGB;color-interpolation-filters:linearRGB;solid-color:#000000;solid-opacity:1;vector-effect:none;fill:#ff8c00;fill-opacity:1;fill-rule:nonzero;stroke:none;stroke-width:7.50001;stroke-linecap:round;stroke-linejoin:round;stroke-miterlimit:4;stroke-dasharray:none;stroke-dashoffset:0;stroke-opacity:1;color-rendering:auto;image-rendering:auto;shape-rendering:auto;text-rendering:auto;enable-background:accumulate;stop-color:#000000;stop-opacity:1"
         d="m 1626.3339,334.72241 v -30.23437 h 15.0469 v -80.57813 h -15.0469 v -30.375 h 57.0938 v 28.26563 h 0.5625 c 1.875,-7.6875 4.2656,-13.78125 7.1718,-18.28125 2.9063,-4.59375 6.1407,-7.78125 9.7032,-9.5625 3.6562,-1.78125 8.3906,-2.67188 14.2031,-2.67188 v 47.25 c -21.0937,0 -31.6406,13.92188 -31.6406,41.76563 v 24.1875 h 16.7343 v 30.23437 z"
         id="path912" />
      <path
         style="color:#000000;font-style:normal;font-variant:normal;font-weight:bold;font-stretch:condensed;font-size:288px;line-height:1.25;font-family:'Rockwell Condensed';-inkscape-font-specification:'Rockwell Condensed, Bold Condensed';font-variant-ligatures:normal;font-variant-position:normal;font-variant-caps:normal;font-variant-numeric:normal;font-variant-alternates:normal;font-variant-east-asian:normal;font-feature-settings:normal;font-variation-settings:normal;text-indent:0;text-align:start;text-decoration:none;text-decoration-line:none;text-decoration-style:solid;text-decoration-color:#000000;letter-spacing:normal;word-spacing:normal;text-transform:none;writing-mode:lr-tb;direction:ltr;text-orientation:mixed;dominant-baseline:auto;baseline-shift:baseline;text-anchor:start;white-space:normal;shape-padding:0;shape-margin:0;inline-size:0;clip-rule:nonzero;display:inline;overflow:visible;visibility:visible;isolation:auto;mix-blend-mode:normal;color-interpolation:sRGB;color-interpolation-filters:linearRGB;solid-color:#000000;solid-opacity:1;vector-effect:none;fill:#f8f8f8;fill-opacity:0.972549;fill-rule:nonzero;stroke:none;stroke-width:7.50001;stroke-linecap:round;stroke-linejoin:round;stroke-miterlimit:4;stroke-dasharray:none;stroke-dashoffset:0;stroke-opacity:1;color-rendering:auto;image-rendering:auto;shape-rendering:auto;text-rendering:auto;enable-background:accumulate;stop-color:#000000;stop-opacity:1"
         d="m 1715.0684,187.53516 c -6.1956,0 -11.4861,0.92684 -15.8457,3.05078 a 3.75038,3.75038 0 0 0 -0.035,0.0176 c -4.3452,2.17258 -8.0252,5.90889 -11.1816,10.89257 -0.3101,0.4804 -0.5317,1.14326 -0.8282,1.65039 v -9.61132 a 3.75038,3.75038 0 0 0 -3.75,-3.75 h -57.0937 a 3.75038,3.75038 0 0 0 -3.75,3.75 v 30.375 a 3.75038,3.75038 0 0 0 3.75,3.75 h 11.2969 v 73.07812 h -11.2969 a 3.75038,3.75038 0 0 0 -3.75,3.75 v 30.23438 a 3.75038,3.75038 0 0 0 3.75,3.75 h 73.8281 a 3.75038,3.75038 0 0 0 3.75,-3.75 V 304.4883 a 3.75038,3.75038 0 0 0 -3.75,-3.75 h -12.9844 v -20.4375 c 0,-13.44839 2.6017,-23.05877 7.1485,-29.06055 4.5468,-6.00177 11.0203,-8.95507 20.7422,-8.95507 a 3.75038,3.75038 0 0 0 3.75,-3.75 v -47.25 a 3.75038,3.75038 0 0 0 -3.75,-3.75 z m -3.75,7.8164 v 39.7793 c -9.6318,0.81652 -17.6607,4.57339 -22.9688,11.58008 -6.0001,7.9201 -8.6719,19.19448 -8.6719,33.58984 v 24.1875 a 3.75038,3.75038 0 0 0 3.75,3.75 h 12.9844 v 22.73438 h -66.3281 v -22.73438 h 11.2969 a 3.75038,3.75038 0 0 0 3.75,-3.75 v -80.57812 a 3.75038,3.75038 0 0 0 -3.75,-3.75 h -11.2969 v -22.875 h 49.5937 v 24.51562 a 3.75038,3.75038 0 0 0 3.75,3.75 h 0.5625 a 3.75038,3.75038 0 0 0 3.6426,-2.86133 c 1.8092,-7.41783 4.1021,-13.14354 6.6797,-17.13476 a 3.75038,3.75038 0 0 0 0.018,-0.0312 c 2.6482,-4.18583 5.4284,-6.81209 8.1972,-8.20117 2.1828,-1.06023 5.2627,-1.65612 8.7911,-1.97071 z"
         id="path914" />
    </g>
    <g
       id="g916"
       style="opacity:1">
      <path
         style="color:#000000;font-style:normal;font-variant:normal;font-weight:bold;font-stretch:condensed;font-size:288px;line-height:1.25;font-family:'Rockwell Condensed';-inkscape-font-specification:'Rockwell Condensed, Bold Condensed';font-variant-ligatures:normal;font-variant-position:normal;font-variant-caps:normal;font-variant-numeric:normal;font-variant-alternates:normal;font-variant-east-asian:normal;font-feature-settings:normal;font-variation-settings:normal;text-indent:0;text-align:start;text-decoration:none;text-decoration-line:none;text-decoration-style:solid;text-decoration-color:#000000;letter-spacing:normal;word-spacing:normal;text-transform:none;writing-mode:lr-tb;direction:ltr;text-orientation:mixed;dominant-baseline:auto;baseline-shift:baseline;text-anchor:start;white-space:normal;shape-padding:0;shape-margin:0;inline-size:0;clip-rule:nonzero;display:inline;overflow:visible;visibility:visible;isolation:auto;mix-blend-mode:normal;color-interpolation:sRGB;color-interpolation-filters:linearRGB;solid-color:#000000;solid-opacity:1;vector-effect:none;fill:#ff8c00;fill-opacity:1;fill-rule:nonzero;stroke:none;stroke-width:7.50001;stroke-linecap:round;stroke-linejoin:round;stroke-miterlimit:4;stroke-dasharray:none;stroke-dashoffset:0;stroke-opacity:1;color-rendering:auto;image-rendering:auto;shape-rendering:auto;text-rendering:auto;enable-background:accumulate;stop-color:#000000;stop-opacity:1"
         d="m 1804.7167,302.80054 v 31.35937 c -8.8125,3.09375 -17.3437,4.64063 -25.5937,4.64063 -22.3125,0 -33.4688,-13.45313 -33.4688,-40.35938 v -74.53125 h -12.6562 v -30.375 h 12.6562 v -17.71875 l 42.0469,-32.90625 v 50.625 h 17.0156 v 30.375 h -17.0156 v 63 c 0,6.28125 0.7969,10.73438 2.3906,13.35938 1.5938,2.625 4.3594,3.9375 8.2969,3.9375 1.9687,0 4.0781,-0.46875 6.3281,-1.40625 z"
         id="path918" />
      <path
         style="color:#000000;font-style:normal;font-variant:normal;font-weight:bold;font-stretch:condensed;font-size:288px;line-height:1.25;font-family:'Rockwell Condensed';-inkscape-font-specification:'Rockwell Condensed, Bold Condensed';font-variant-ligatures:normal;font-variant-position:normal;font-variant-caps:normal;font-variant-numeric:normal;font-variant-alternates:normal;font-variant-east-asian:normal;font-feature-settings:normal;font-variation-settings:normal;text-indent:0;text-align:start;text-decoration:none;text-decoration-line:none;text-decoration-style:solid;text-decoration-color:#000000;letter-spacing:normal;word-spacing:normal;text-transform:none;writing-mode:lr-tb;direction:ltr;text-orientation:mixed;dominant-baseline:auto;baseline-shift:baseline;text-anchor:start;white-space:normal;shape-padding:0;shape-margin:0;inline-size:0;clip-rule:nonzero;display:inline;overflow:visible;visibility:visible;isolation:auto;mix-blend-mode:normal;color-interpolation:sRGB;color-interpolation-filters:linearRGB;solid-color:#000000;solid-opacity:1;vector-effect:none;fill:#f8f8f8;fill-opacity:0.972549;fill-rule:nonzero;stroke:none;stroke-width:7.50001;stroke-linecap:round;stroke-linejoin:round;stroke-miterlimit:4;stroke-dasharray:none;stroke-dashoffset:0;stroke-opacity:1;color-rendering:auto;image-rendering:auto;shape-rendering:auto;text-rendering:auto;enable-background:accumulate;stop-color:#000000;stop-opacity:1"
         d="m 1787.7285,139.16016 a 3.75038,3.75038 0 0 0 -2.3379,0.79687 l -42.0468,32.90625 a 3.75038,3.75038 0 0 0 -1.4395,2.95313 v 13.96875 h -8.9063 a 3.75038,3.75038 0 0 0 -3.75,3.75 v 30.375 a 3.75038,3.75038 0 0 0 3.75,3.75 h 8.9063 v 70.78125 c 0,13.97142 2.8682,24.98996 9.2305,32.66211 6.3622,7.67214 16.0783,11.44726 27.9882,11.44726 8.7188,0 17.6784,-1.63861 26.836,-4.85351 a 3.75038,3.75038 0 0 0 2.5078,-3.53711 v -31.35938 a 3.75038,3.75038 0 0 0 -5.1934,-3.46094 c -1.8915,0.78815 -3.5112,1.11719 -4.8847,1.11719 -3.1042,0 -4.209,-0.68078 -5.0918,-2.13476 -0.9051,-1.4908 -1.8457,-5.44802 -1.8457,-11.41211 v -59.25 h 13.2656 a 3.75038,3.75038 0 0 0 3.75,-3.75 v -30.375 a 3.75038,3.75038 0 0 0 -3.75,-3.75 h -13.2656 v -46.875 a 3.75038,3.75038 0 0 0 -3.7227,-3.75 z m -3.7773,11.44531 v 42.92969 a 3.75038,3.75038 0 0 0 3.75,3.75 h 13.2656 v 22.875 h -13.2656 a 3.75038,3.75038 0 0 0 -3.75,3.75 v 63 c 0,6.59841 0.6532,11.54548 2.9355,15.30468 2.3048,3.79602 6.7312,5.74219 11.502,5.74219 0.8542,0 1.7172,-0.16279 2.5781,-0.29297 v 23.73438 c -7.5574,2.40411 -14.8389,3.65234 -21.8438,3.65234 -10.4025,0 -17.4208,-2.95339 -22.2148,-8.73437 -4.794,-5.78099 -7.5039,-14.94017 -7.5039,-27.875 v -74.53125 a 3.75038,3.75038 0 0 0 -3.75,-3.75 h -8.9063 v -22.875 h 8.9063 a 3.75038,3.75038 0 0 0 3.75,-3.75 v -15.89258 z"
         id="path920" />
    </g>
    <g
       id="g922"
       style="opacity:1">
      <path
         style="color:#000000;font-style:normal;font-variant:normal;font-weight:bold;font-stretch:condensed;font-size:288px;line-height:1.25;font-family:'Rockwell Condensed';-inkscape-font-specification:'Rockwell Condensed, Bold Condensed';font-variant-ligatures:normal;font-variant-position:normal;font-variant-caps:normal;font-variant-numeric:normal;font-variant-alternates:normal;font-variant-east-asian:normal;font-feature-settings:normal;font-variation-settings:normal;text-indent:0;text-align:start;text-decoration:none;text-decoration-line:none;text-decoration-style:solid;text-decoration-color:#000000;letter-spacing:normal;word-spacing:normal;text-transform:none;writing-mode:lr-tb;direction:ltr;text-orientation:mixed;dominant-baseline:auto;baseline-shift:baseline;text-anchor:start;white-space:normal;shape-padding:0;shape-margin:0;inline-size:0;clip-rule:nonzero;display:inline;overflow:visible;visibility:visible;isolation:auto;mix-blend-mode:normal;color-interpolation:sRGB;color-interpolation-filters:linearRGB;solid-color:#000000;solid-opacity:1;vector-effect:none;fill:#ff8c00;fill-opacity:1;fill-rule:nonzero;stroke:none;stroke-width:7.50001;stroke-linecap:round;stroke-linejoin:round;stroke-miterlimit:4;stroke-dasharray:none;stroke-dashoffset:0;stroke-opacity:1;color-rendering:auto;image-rendering:auto;shape-rendering:auto;text-rendering:auto;enable-background:accumulate;stop-color:#000000;stop-opacity:1"
         d="m 1821.5214,334.72241 v -30.23437 h 15.0469 v -80.57813 h -15.0469 v -30.375 h 57.0938 v 28.26563 h 0.5625 c 1.875,-7.6875 4.2656,-13.78125 7.1718,-18.28125 2.9063,-4.59375 6.1407,-7.78125 9.7032,-9.5625 3.6562,-1.78125 8.3906,-2.67188 14.2031,-2.67188 v 47.25 c -21.0937,0 -31.6406,13.92188 -31.6406,41.76563 v 24.1875 h 16.7343 v 30.23437 z"
         id="path924" />
      <path
         style="color:#000000;font-style:normal;font-variant:normal;font-weight:bold;font-stretch:condensed;font-size:288px;line-height:1.25;font-family:'Rockwell Condensed';-inkscape-font-specification:'Rockwell Condensed, Bold Condensed';font-variant-ligatures:normal;font-variant-position:normal;font-variant-caps:normal;font-variant-numeric:normal;font-variant-alternates:normal;font-variant-east-asian:normal;font-feature-settings:normal;font-variation-settings:normal;text-indent:0;text-align:start;text-decoration:none;text-decoration-line:none;text-decoration-style:solid;text-decoration-color:#000000;letter-spacing:normal;word-spacing:normal;text-transform:none;writing-mode:lr-tb;direction:ltr;text-orientation:mixed;dominant-baseline:auto;baseline-shift:baseline;text-anchor:start;white-space:normal;shape-padding:0;shape-margin:0;inline-size:0;clip-rule:nonzero;display:inline;overflow:visible;visibility:visible;isolation:auto;mix-blend-mode:normal;color-interpolation:sRGB;color-interpolation-filters:linearRGB;solid-color:#000000;solid-opacity:1;vector-effect:none;fill:#f8f8f8;fill-opacity:0.972549;fill-rule:nonzero;stroke:none;stroke-width:7.50001;stroke-linecap:round;stroke-linejoin:round;stroke-miterlimit:4;stroke-dasharray:none;stroke-dashoffset:0;stroke-opacity:1;color-rendering:auto;image-rendering:auto;shape-rendering:auto;text-rendering:auto;enable-background:accumulate;stop-color:#000000;stop-opacity:1"
         d="m 1910.2559,187.53516 c -6.1956,0 -11.4861,0.92684 -15.8457,3.05078 a 3.75038,3.75038 0 0 0 -0.035,0.0176 c -4.3452,2.17258 -8.0252,5.90889 -11.1816,10.89257 -0.3101,0.4804 -0.5317,1.14326 -0.8282,1.65039 v -9.61132 a 3.75038,3.75038 0 0 0 -3.75,-3.75 h -57.0937 a 3.75038,3.75038 0 0 0 -3.75,3.75 v 30.375 a 3.75038,3.75038 0 0 0 3.75,3.75 h 11.2969 v 73.07812 h -11.2969 a 3.75038,3.75038 0 0 0 -3.75,3.75 v 30.23438 a 3.75038,3.75038 0 0 0 3.75,3.75 h 73.8281 a 3.75038,3.75038 0 0 0 3.75,-3.75 V 304.4883 a 3.75038,3.75038 0 0 0 -3.75,-3.75 h -12.9844 v -20.4375 c 0,-13.44839 2.6017,-23.05877 7.1485,-29.06055 4.5468,-6.00177 11.0203,-8.95507 20.7422,-8.95507 a 3.75038,3.75038 0 0 0 3.75,-3.75 v -47.25 a 3.75038,3.75038 0 0 0 -3.75,-3.75 z m -3.75,7.8164 v 39.7793 c -9.6318,0.81652 -17.6607,4.57339 -22.9688,11.58008 -6.0001,7.9201 -8.6719,19.19448 -8.6719,33.58984 v 24.1875 a 3.75038,3.75038 0 0 0 3.75,3.75 h 12.9844 v 22.73438 h -66.3281 v -22.73438 h 11.2969 a 3.75038,3.75038 0 0 0 3.75,-3.75 v -80.57812 a 3.75038,3.75038 0 0 0 -3.75,-3.75 h -11.2969 v -22.875 h 49.5937 v 24.51562 a 3.75038,3.75038 0 0 0 3.75,3.75 h 0.5625 a 3.75038,3.75038 0 0 0 3.6426,-2.86133 c 1.8092,-7.41783 4.1021,-13.14354 6.6797,-17.13476 a 3.75038,3.75038 0 0 0 0.018,-0.0312 c 2.6482,-4.18583 5.4284,-6.81209 8.1972,-8.20117 2.1828,-1.06023 5.2627,-1.65612 8.7911,-1.97071 z"
         id="path926" />
    </g>
    <g
       id="g928"
       style="opacity:1">
      <path
         style="color:#000000;font-style:normal;font-variant:normal;font-weight:bold;font-stretch:condensed;font-size:288px;line-height:1.25;font-family:'Rockwell Condensed';-inkscape-font-specification:'Rockwell Condensed, Bold Condensed';font-variant-ligatures:normal;font-variant-position:normal;font-variant-caps:normal;font-variant-numeric:normal;font-variant-alternates:normal;font-variant-east-asian:normal;font-feature-settings:normal;font-variation-settings:normal;text-indent:0;text-align:start;text-decoration:none;text-decoration-line:none;text-decoration-style:solid;text-decoration-color:#000000;letter-spacing:normal;word-spacing:normal;text-transform:none;writing-mode:lr-tb;direction:ltr;text-orientation:mixed;dominant-baseline:auto;baseline-shift:baseline;text-anchor:start;white-space:normal;shape-padding:0;shape-margin:0;inline-size:0;clip-rule:nonzero;display:inline;overflow:visible;visibility:visible;isolation:auto;mix-blend-mode:normal;color-interpolation:sRGB;color-interpolation-filters:linearRGB;solid-color:#000000;solid-opacity:1;vector-effect:none;fill:#ff8c00;fill-opacity:1;fill-rule:nonzero;stroke:none;stroke-width:7.50001;stroke-linecap:round;stroke-linejoin:round;stroke-miterlimit:4;stroke-dasharray:none;stroke-dashoffset:0;stroke-opacity:1;color-rendering:auto;image-rendering:auto;shape-rendering:auto;text-rendering:auto;enable-background:accumulate;stop-color:#000000;stop-opacity:1"
         d="m 2046.9433,334.72241 h -55.2656 v -10.96875 c -8.5313,8.625 -18.2344,12.9375 -29.1094,12.9375 -10.9687,0 -20.1562,-4.3125 -27.5625,-12.9375 -7.3125,-8.625 -10.9688,-19.54687 -10.9688,-32.76562 0,-13.5 3.9844,-24.70313 11.9532,-33.60938 7.9687,-8.90625 18.0937,-13.35937 30.375,-13.35937 8.5312,0 16.9687,2.85937 25.3125,8.57812 v -14.90625 c 0,-7.59375 -0.9844,-12.9375 -2.9532,-16.03125 -1.875,-3.1875 -5.2969,-4.78125 -10.2656,-4.78125 -6.6563,0 -11.25,3.65625 -13.7812,10.96875 l -37.8282,-7.73437 c 11.1563,-20.34375 30.0938,-30.51563 56.8125,-30.51563 15.5625,0 27.7969,3.60938 36.7032,10.82813 8.9062,7.21875 13.3593,17.8125 13.3593,31.78125 v 72.28125 h 13.2188 z m -55.2656,-36.28125 v -21.375 c -3.5625,-4.40625 -7.5938,-6.60937 -12.0938,-6.60937 -4.125,0 -7.4062,1.73437 -9.8437,5.20312 -2.4375,3.375 -3.6563,7.875 -3.6563,13.5 0,5.53125 1.125,9.79688 3.375,12.79688 2.3437,3 5.5312,4.5 9.5625,4.5 4.9687,0 9.1875,-2.67188 12.6563,-8.01563 z"
         id="path930" />
      <path
         style="color:#000000;font-style:normal;font-variant:normal;font-weight:bold;font-stretch:condensed;font-size:288px;line-height:1.25;font-family:'Rockwell Condensed';-inkscape-font-specification:'Rockwell Condensed, Bold Condensed';font-variant-ligatures:normal;font-variant-position:normal;font-variant-caps:normal;font-variant-numeric:normal;font-variant-alternates:normal;font-variant-east-asian:normal;font-feature-settings:normal;font-variation-settings:normal;text-indent:0;text-align:start;text-decoration:none;text-decoration-line:none;text-decoration-style:solid;text-decoration-color:#000000;letter-spacing:normal;word-spacing:normal;text-transform:none;writing-mode:lr-tb;direction:ltr;text-orientation:mixed;dominant-baseline:auto;baseline-shift:baseline;text-anchor:start;white-space:normal;shape-padding:0;shape-margin:0;inline-size:0;clip-rule:nonzero;display:inline;overflow:visible;visibility:visible;isolation:auto;mix-blend-mode:normal;color-interpolation:sRGB;color-interpolation-filters:linearRGB;solid-color:#000000;solid-opacity:1;vector-effect:none;fill:#f8f8f8;fill-opacity:0.972549;fill-rule:nonzero;stroke:none;stroke-width:7.50001;stroke-linecap:round;stroke-linejoin:round;stroke-miterlimit:4;stroke-dasharray:none;stroke-dashoffset:0;stroke-opacity:1;color-rendering:auto;image-rendering:auto;shape-rendering:auto;text-rendering:auto;enable-background:accumulate;stop-color:#000000;stop-opacity:1"
         d="m 1983.6621,185.84766 c -27.6705,0 -48.3384,11.01247 -60.1016,32.46289 a 3.75038,3.75038 0 0 0 2.5372,5.47656 l 37.8281,7.73437 a 3.75038,3.75038 0 0 0 4.2949,-2.44726 c 1.0994,-3.17616 2.5304,-5.241 4.1367,-6.51953 1.6064,-1.27854 3.4601,-1.92578 6.1016,-1.92578 4.1668,0 5.8922,0.99189 7.0332,2.93164 a 3.75038,3.75038 0 0 0 0.068,0.11328 c 1.2227,1.92131 2.3672,6.74791 2.3672,14.01758 V 246 c -7.0241,-3.73289 -14.2465,-5.73047 -21.5625,-5.73047 -13.1877,0 -24.5628,4.9897 -33.1699,14.60938 -8.5966,9.60792 -12.9082,21.87152 -12.9082,36.10937 0,13.91024 3.9338,25.84562 11.8574,35.19141 a 3.75038,3.75038 0 0 0 0.016,0.0176 c 8.0023,9.31918 18.4565,14.24414 30.4082,14.24414 9.1973,0 17.7375,-2.99512 25.3593,-8.58789 v 2.86914 a 3.75038,3.75038 0 0 0 3.75,3.75 h 55.2657 a 3.75038,3.75038 0 0 0 3.75,-3.75 V 304.4883 a 3.75038,3.75038 0 0 0 -3.75,-3.75 h -9.4688 v -68.53125 c 0,-14.76573 -4.9226,-26.73153 -14.748,-34.69531 -9.7363,-7.89152 -22.9221,-11.66406 -39.0645,-11.66406 z m 0,7.5 c 14.9827,0 26.2656,3.44424 34.3418,9.99023 7.987,6.47371 11.9707,15.69736 11.9707,28.86914 v 72.28125 a 3.75038,3.75038 0 0 0 3.75,3.75 h 9.4688 v 22.73438 h -47.7657 v -7.21875 a 3.75038,3.75038 0 0 0 -6.416,-2.63672 c -7.971,8.05861 -16.5597,11.82422 -26.4433,11.82422 -9.984,0 -17.9036,-3.69919 -24.7129,-11.62696 0,-0.001 0,-0.002 0,-0.004 -6.6918,-7.9014 -10.0645,-17.80407 -10.0645,-30.32227 0,-12.76215 3.6571,-22.90479 10.9981,-31.10937 7.3304,-8.19282 16.2053,-12.10938 27.58,-12.10938 7.6933,0 15.3412,2.54008 23.1934,7.92188 a 3.75038,3.75038 0 0 0 5.8691,-3.09375 v -14.90625 c 0,-7.87921 -0.8225,-13.71569 -3.5058,-17.97657 -2.6178,-4.40247 -7.7135,-6.58593 -13.4629,-6.58593 -4.0148,0 -7.7861,1.18087 -10.7735,3.55859 -2.1832,1.73767 -3.7712,4.18053 -5.1015,6.9043 l -29.668,-6.06641 c 10.698,-16.19676 27.0741,-24.17773 50.7461,-24.17773 z m -4.0781,73.35937 c -5.1692,0 -9.8883,2.50886 -12.8985,6.78125 -3.0054,4.17343 -4.3515,9.51599 -4.3515,15.67188 0,6.03972 1.2112,11.16187 4.125,15.04687 a 3.75038,3.75038 0 0 0 0.045,0.0586 c 2.9859,3.82197 7.5561,5.94141 12.5176,5.94141 6.3131,0 11.8867,-3.69497 15.8008,-9.72461 a 3.75038,3.75038 0 0 0 0.6054,-2.04101 v -21.375 a 3.75038,3.75038 0 0 0 -0.8339,-2.35743 c -4.0479,-5.00654 -9.2859,-8.00195 -15.0098,-8.00195 z m 0,7.5 c 2.9753,0 5.5858,1.26335 8.3437,4.32813 v 18.65625 c -2.8041,3.97354 -5.5253,5.51562 -8.9062,5.51562 -3.0845,0 -4.8845,-0.88052 -6.5781,-3.0332 -1.5756,-2.11685 -2.6094,-5.51094 -2.6094,-10.51367 0,-5.08333 1.0867,-8.73133 2.9453,-11.30469 a 3.75038,3.75038 0 0 0 0.029,-0.0391 c 1.8653,-2.65455 3.7015,-3.60938 6.7754,-3.60938 z"
         id="path932" />
    </g>
    <g
       id="g934"
       style="opacity:1">
      <path
         style="color:#000000;font-style:normal;font-variant:normal;font-weight:bold;font-stretch:condensed;font-size:288px;line-height:1.25;font-family:'Rockwell Condensed';-inkscape-font-specification:'Rockwell Condensed, Bold Condensed';font-variant-ligatures:normal;font-variant-position:normal;font-variant-caps:normal;font-variant-numeric:normal;font-variant-alternates:normal;font-variant-east-asian:normal;font-feature-settings:normal;font-variation-settings:normal;text-indent:0;text-align:start;text-decoration:none;text-decoration-line:none;text-decoration-style:solid;text-decoration-color:#000000;letter-spacing:normal;word-spacing:normal;text-transform:none;writing-mode:lr-tb;direction:ltr;text-orientation:mixed;dominant-baseline:auto;baseline-shift:baseline;text-anchor:start;white-space:normal;shape-padding:0;shape-margin:0;inline-size:0;clip-rule:nonzero;display:inline;overflow:visible;visibility:visible;isolation:auto;mix-blend-mode:normal;color-interpolation:sRGB;color-interpolation-filters:linearRGB;solid-color:#000000;solid-opacity:1;vector-effect:none;fill:#ff8c00;fill-opacity:1;fill-rule:nonzero;stroke:none;stroke-width:7.50001;stroke-linecap:round;stroke-linejoin:round;stroke-miterlimit:4;stroke-dasharray:none;stroke-dashoffset:0;stroke-opacity:1;color-rendering:auto;image-rendering:auto;shape-rendering:auto;text-rendering:auto;enable-background:accumulate;stop-color:#000000;stop-opacity:1"
         d="m 2124.287,153.87866 c 0,6.75 -2.3906,12.51563 -7.1718,17.29688 -4.7813,4.78125 -10.5469,7.17187 -17.2969,7.17187 -6.75,0 -12.5156,-2.39062 -17.2969,-7.17187 -4.7813,-4.78125 -7.1719,-10.54688 -7.1719,-17.29688 0,-6.75 2.3906,-12.51562 7.1719,-17.29687 4.7813,-4.78125 10.5469,-7.17188 17.2969,-7.17188 6.6563,0 12.375,2.39063 17.1562,7.17188 4.875,4.78125 7.3125,10.54687 7.3125,17.29687 z m -61.1718,180.84375 v -30.23437 h 15.3281 v -80.57813 h -15.3281 v -30.375 h 57.375 v 110.95313 h 13.5 v 30.23437 z"
         id="path936" />
      <path
         style="color:#000000;font-style:normal;font-variant:normal;font-weight:bold;font-stretch:condensed;font-size:288px;line-height:1.25;font-family:'Rockwell Condensed';-inkscape-font-specification:'Rockwell Condensed, Bold Condensed';font-variant-ligatures:normal;font-variant-position:normal;font-variant-caps:normal;font-variant-numeric:normal;font-variant-alternates:normal;font-variant-east-asian:normal;font-feature-settings:normal;font-variation-settings:normal;text-indent:0;text-align:start;text-decoration:none;text-decoration-line:none;text-decoration-style:solid;text-decoration-color:#000000;letter-spacing:normal;word-spacing:normal;text-transform:none;writing-mode:lr-tb;direction:ltr;text-orientation:mixed;dominant-baseline:auto;baseline-shift:baseline;text-anchor:start;white-space:normal;shape-padding:0;shape-margin:0;inline-size:0;clip-rule:nonzero;display:inline;overflow:visible;visibility:visible;isolation:auto;mix-blend-mode:normal;color-interpolation:sRGB;color-interpolation-filters:linearRGB;solid-color:#000000;solid-opacity:1;vector-effect:none;fill:#f8f8f8;fill-opacity:0.972549;fill-rule:nonzero;stroke:none;stroke-width:7.50001;stroke-linecap:round;stroke-linejoin:round;stroke-miterlimit:4;stroke-dasharray:none;stroke-dashoffset:0;stroke-opacity:1;color-rendering:auto;image-rendering:auto;shape-rendering:auto;text-rendering:auto;enable-background:accumulate;stop-color:#000000;stop-opacity:1"
         d="m 2099.8184,125.66016 c -7.6355,0 -14.5441,2.86436 -19.9493,8.26953 -5.4051,5.40516 -8.2695,12.3138 -8.2695,19.94922 0,7.63542 2.8644,14.54404 8.2695,19.94921 5.4052,5.40517 12.3138,8.26954 19.9493,8.26954 7.6354,0 14.544,-2.86437 19.9492,-8.26954 5.4051,-5.40517 8.2695,-12.31381 8.2695,-19.94921 0,-7.64855 -2.9307,-14.56719 -8.4297,-19.96485 -5.3937,-5.38485 -12.2433,-8.2539 -19.789,-8.2539 z m 0,7.5 c 5.7583,0 10.3379,1.90823 14.5039,6.07422 a 3.75038,3.75038 0 0 0 0.027,0.0254 c 4.2452,4.16353 6.1875,8.77192 6.1875,14.61914 0,5.86459 -1.9169,10.4872 -6.0742,14.64453 -4.1574,4.15733 -8.78,6.07422 -14.6445,6.07422 -5.8646,0 -10.4872,-1.91689 -14.6446,-6.07422 -4.1573,-4.15734 -6.0742,-8.77995 -6.0742,-14.64453 0,-5.86458 1.9169,-10.48721 6.0742,-14.64453 4.1574,-4.15734 8.78,-6.07422 14.6446,-6.07422 z m -36.7032,56.625 a 3.75038,3.75038 0 0 0 -3.75,3.75 v 30.375 a 3.75038,3.75038 0 0 0 3.75,3.75 h 11.5782 v 73.07812 h -11.5782 a 3.75038,3.75038 0 0 0 -3.75,3.75 v 30.23438 a 3.75038,3.75038 0 0 0 3.75,3.75 h 70.875 a 3.75038,3.75038 0 0 0 3.75,-3.75 v -30.23438 a 3.75038,3.75038 0 0 0 -3.75,-3.75 h -9.75 V 193.53516 a 3.75038,3.75038 0 0 0 -3.75,-3.75 z m 3.75,7.5 h 49.875 v 107.20312 a 3.75038,3.75038 0 0 0 3.75,3.75 h 9.75 v 22.73438 h -63.375 v -22.73438 h 11.5782 a 3.75038,3.75038 0 0 0 3.75,-3.75 v -80.57812 a 3.75038,3.75038 0 0 0 -3.75,-3.75 h -11.5782 z"
         id="path938" />
    </g>
    <g
       id="g940"
       style="opacity:1">
      <path
         style="color:#000000;font-style:normal;font-variant:normal;font-weight:bold;font-stretch:condensed;font-size:288px;line-height:1.25;font-family:'Rockwell Condensed';-inkscape-font-specification:'Rockwell Condensed, Bold Condensed';font-variant-ligatures:normal;font-variant-position:normal;font-variant-caps:normal;font-variant-numeric:normal;font-variant-alternates:normal;font-variant-east-asian:normal;font-feature-settings:normal;font-variation-settings:normal;text-indent:0;text-align:start;text-decoration:none;text-decoration-line:none;text-decoration-style:solid;text-decoration-color:#000000;letter-spacing:normal;word-spacing:normal;text-transform:none;writing-mode:lr-tb;direction:ltr;text-orientation:mixed;dominant-baseline:auto;baseline-shift:baseline;text-anchor:start;white-space:normal;shape-padding:0;shape-margin:0;inline-size:0;clip-rule:nonzero;display:inline;overflow:visible;visibility:visible;isolation:auto;mix-blend-mode:normal;color-interpolation:sRGB;color-interpolation-filters:linearRGB;solid-color:#000000;solid-opacity:1;vector-effect:none;fill:#ff8c00;fill-opacity:1;fill-rule:nonzero;stroke:none;stroke-width:7.50001;stroke-linecap:round;stroke-linejoin:round;stroke-miterlimit:4;stroke-dasharray:none;stroke-dashoffset:0;stroke-opacity:1;color-rendering:auto;image-rendering:auto;shape-rendering:auto;text-rendering:auto;enable-background:accumulate;stop-color:#000000;stop-opacity:1"
         d="m 2148.8964,334.72241 v -30.23437 h 15.6094 v -80.57813 h -15.6094 v -30.375 h 57.6563 v 15.04688 h 1.125 c 6.2812,-11.53125 16.4531,-17.29688 30.5156,-17.29688 10.875,0 19.6406,4.07813 26.2969,12.23438 6.6562,8.0625 9.9843,19.17187 9.9843,33.32812 v 67.64063 h 14.2032 v 30.23437 h -56.25 v -90.98437 c 0,-7.5 -0.8438,-12.75 -2.5313,-15.75 -1.6875,-3 -4.7812,-4.5 -9.2812,-4.5 -2.3438,0 -4.3594,0.42187 -6.0469,1.26562 -1.6875,0.84375 -4.3594,2.67188 -8.0156,5.48438 v 74.25 h 12.0937 v 30.23437 z"
         id="path942" />
      <path
         style="color:#000000;font-style:normal;font-variant:normal;font-weight:bold;font-stretch:condensed;font-size:288px;line-height:1.25;font-family:'Rockwell Condensed';-inkscape-font-specification:'Rockwell Condensed, Bold Condensed';font-variant-ligatures:normal;font-variant-position:normal;font-variant-caps:normal;font-variant-numeric:normal;font-variant-alternates:normal;font-variant-east-asian:normal;font-feature-settings:normal;font-variation-settings:normal;text-indent:0;text-align:start;text-decoration:none;text-decoration-line:none;text-decoration-style:solid;text-decoration-color:#000000;letter-spacing:normal;word-spacing:normal;text-transform:none;writing-mode:lr-tb;direction:ltr;text-orientation:mixed;dominant-baseline:auto;baseline-shift:baseline;text-anchor:start;white-space:normal;shape-padding:0;shape-margin:0;inline-size:0;clip-rule:nonzero;display:inline;overflow:visible;visibility:visible;isolation:auto;mix-blend-mode:normal;color-interpolation:sRGB;color-interpolation-filters:linearRGB;solid-color:#000000;solid-opacity:1;vector-effect:none;fill:#f8f8f8;fill-opacity:0.972549;fill-rule:nonzero;stroke:none;stroke-width:7.50001;stroke-linecap:round;stroke-linejoin:round;stroke-miterlimit:4;stroke-dasharray:none;stroke-dashoffset:0;stroke-opacity:1;color-rendering:auto;image-rendering:auto;shape-rendering:auto;text-rendering:auto;enable-background:accumulate;stop-color:#000000;stop-opacity:1"
         d="m 2238.1934,187.53516 c -11.3907,0 -20.9442,3.82277 -27.8907,11.09765 v -5.09765 a 3.75038,3.75038 0 0 0 -3.75,-3.75 h -57.6562 a 3.75038,3.75038 0 0 0 -3.75,3.75 v 30.375 a 3.75038,3.75038 0 0 0 3.75,3.75 h 11.8594 v 73.07812 h -11.8594 a 3.75038,3.75038 0 0 0 -3.75,3.75 v 30.23438 a 3.75038,3.75038 0 0 0 3.75,3.75 h 69.75 a 3.75038,3.75038 0 0 0 3.75,-3.75 v -30.23438 a 3.75038,3.75038 0 0 0 -3.75,-3.75 h -8.3438 v -68.53516 c 2.5632,-1.89043 5.0079,-3.62795 5.9434,-4.0957 1.0663,-0.53316 2.4753,-0.86914 4.3691,-0.86914 3.6667,0 5.0245,0.82932 6.0137,2.58789 1.0329,1.83617 2.0488,6.69337 2.0488,13.91211 v 90.98438 a 3.75038,3.75038 0 0 0 3.75,3.75 h 56.25 a 3.75038,3.75038 0 0 0 3.75,-3.75 v -30.23438 a 3.75038,3.75038 0 0 0 -3.75,-3.75 h -10.4531 v -63.89062 c 0,-14.74101 -3.4987,-26.81606 -10.8379,-35.70899 -7.2881,-8.92414 -17.3857,-13.60351 -29.1933,-13.60351 z m 0,7.5 c 9.9375,0 17.3668,3.47427 23.3906,10.85546 a 3.75038,3.75038 0 0 0 0.014,0.0156 c 5.9701,7.23156 9.1269,17.3729 9.1269,30.94141 v 67.64062 a 3.75038,3.75038 0 0 0 3.75,3.75 h 10.4531 v 22.73438 h -48.75 v -87.23438 c 0,-7.78125 -0.6714,-13.42406 -3.0136,-17.58789 -2.3858,-4.24143 -7.2155,-6.41211 -12.5489,-6.41211 -2.7938,0 -5.4159,0.50778 -7.7246,1.66211 -2.2093,1.10464 -4.8914,2.99323 -8.625,5.86523 a 3.75038,3.75038 0 0 0 -1.4629,2.97266 v 74.25 a 3.75038,3.75038 0 0 0 3.75,3.75 h 8.3438 v 22.73438 h -62.25 v -22.73438 h 11.8594 a 3.75038,3.75038 0 0 0 3.75,-3.75 v -80.57812 a 3.75038,3.75038 0 0 0 -3.75,-3.75 h -11.8594 v -22.875 h 50.1562 V 208.582 a 3.75038,3.75038 0 0 0 3.75,3.75 h 1.125 a 3.75038,3.75038 0 0 0 3.293,-1.95703 c 5.7189,-10.49889 14.1851,-15.33984 27.2227,-15.33984 z"
         id="path944" />
    </g>
  </g>
</svg>
